Coordinates
version=1
nRows=54
nColumns=12
inDegrees=yes

Units are S.I. units (second, meters, Newtons, ...)
Angles are in degrees

endheader
time	SC_y	SC_z	SC_x	AC_y	AC_z	AC_x	GH_y	GH_z	GH_yy	EL_x	PS_y
       0.0              -25.13          8.823          58.32          59.93         -7.867         -5.571         -165.3          57.26          -31.5          11.36          78.44
    0.0427              -25.13          8.825          58.31          59.93         -7.864         -5.567         -165.3          57.25         -31.52          11.37          78.45
    0.0854              -25.13          8.826           58.3          59.93         -7.862         -5.564         -165.2          57.24         -31.53          11.38          78.46
    0.1281              -25.13          8.827          58.29          59.92         -7.859          -5.56         -165.2          57.23         -31.55           11.4          78.48
    0.1708              -25.13          8.829          58.28          59.92         -7.857         -5.556         -165.1          57.22         -31.57          11.41          78.49
    0.2135              -25.13           8.83          58.27          59.92         -7.854         -5.552         -165.1           57.2         -31.59          11.42           78.5
    0.2562              -25.13          8.832          58.26          59.92          -7.85         -5.547         -165.0          57.19         -31.61          11.44          78.52
    0.2989              -25.13          8.834          58.25          59.91         -7.847         -5.542         -164.9          57.18         -31.64          11.46          78.53
    0.3416              -25.12          8.836          58.24          59.91         -7.843         -5.537         -164.8          57.16         -31.66          11.48          78.55
    0.3843              -25.12          8.838          58.23          59.91         -7.839         -5.531         -164.8          57.15         -31.69           11.5          78.57
     0.427              -25.12           8.84          58.21           59.9         -7.835         -5.525         -164.7          57.13         -31.72          11.52          78.59
    0.4697              -25.12          8.843           58.2           59.9          -7.83         -5.519         -164.6          57.11         -31.75          11.54          78.61
    0.5124              -25.12          8.845          58.18           59.9         -7.825         -5.512         -164.5          57.09         -31.78          11.57          78.64
    0.5551              -25.12          8.848          58.16          59.89          -7.82         -5.504         -164.4          57.07         -31.82          11.59          78.66
    0.5978              -25.11          8.851          58.15          59.89         -7.814         -5.496         -164.3          57.05         -31.86          11.62          78.69
    0.6405              -25.11          8.854          58.13          59.88         -7.808         -5.487         -164.1          57.02          -31.9          11.66          78.72
    0.6832              -25.11          8.858           58.1          59.88         -7.801         -5.478         -164.0           57.0         -31.95          11.69          78.75
    0.7259              -25.11          8.862          58.08          59.87         -7.794         -5.467         -163.9          56.97          -32.0          11.73          78.78
    0.7686              -25.11          8.866          58.05          59.86         -7.786         -5.456         -163.7          56.94         -32.05          11.77          78.82
    0.8113               -25.1           8.87          58.02          59.86         -7.777         -5.443         -163.5           56.9         -32.11          11.81          78.86
     0.854               -25.1          8.876          57.99          59.85         -7.767         -5.429         -163.3          56.86         -32.18          11.86          78.91
    0.8967               -25.1          8.881          57.96          59.84         -7.757         -5.414         -163.1          56.82         -32.25          11.92          78.96
    0.9394              -25.09          8.887          57.92          59.83         -7.745         -5.397         -162.9          56.77         -32.33          11.98          79.02
    0.9821              -25.09          8.894          57.87          59.82         -7.732         -5.379         -162.6          56.72         -32.42          12.05          79.08
     1.025              -25.08          8.902          57.82          59.81         -7.717         -5.358         -162.3          56.67         -32.52          12.12          79.15
     1.068              -25.08           8.91          57.77          59.79         -7.701         -5.335         -162.0           56.6         -32.63           12.2          79.22
      1.11              -25.07           8.92          57.71          59.78         -7.683         -5.309         -161.6          56.53         -32.75          12.29          79.31
     1.153              -25.07           8.93          57.64          59.76         -7.663          -5.28         -161.2          56.45         -32.89           12.4          79.41
     1.196              -25.06          8.943          57.57          59.74         -7.639         -5.247         -160.8          56.36         -33.05          12.52          79.51
     1.238              -25.05          8.956          57.48          59.72         -7.613          -5.21         -160.2          56.25         -33.22          12.65          79.64
     1.281              -25.04          8.972          57.38           59.7         -7.583         -5.167         -159.7          56.14         -33.43           12.8          79.78
     1.324              -25.03           8.99          57.27          59.67         -7.549         -5.118         -159.0           56.0         -33.66          12.98          79.94
     1.366              -25.02          9.011          57.14          59.64         -7.509         -5.062         -158.2          55.84         -33.93          13.18          80.13
     1.409               -25.0          9.035          56.99           59.6         -7.463         -4.996         -157.3          55.66         -34.24          13.41          80.35
     1.452              -24.98          9.063          56.81          59.55          -7.41         -4.919         -156.2          55.45         -34.61          13.69           80.6
     1.495              -24.96          9.096           56.6           59.5         -7.346         -4.829         -154.9           55.2         -35.04          14.01           80.9
     1.537              -24.94          9.136          56.35          59.44         -7.271         -4.721         -153.4           54.9         -35.55           14.4          81.26
      1.58              -24.91          9.183          56.05          59.37          -7.18         -4.592         -151.6          54.54         -36.17          14.86          81.69
     1.623              -24.87           9.24          55.69          59.28         -7.071         -4.437         -149.4          54.11         -36.91          15.42           82.2
     1.665              -24.83           9.31          55.25          59.17         -6.937         -4.246         -146.7          53.58         -37.82           16.1          82.83
     1.708              -24.77          9.397           54.7          59.03         -6.772         -4.011         -143.4          52.93         -38.94          16.94          83.61
     1.751              -24.71          9.505          54.02          58.86         -6.566         -3.718         -139.3          52.11         -40.34          17.99          84.59
     1.793              -24.62           9.64          53.16          58.65         -6.307         -3.349         -134.1          51.09          -42.1          19.31          85.81
     1.836              -24.51          9.813          52.08          58.38         -5.978         -2.879         -127.5          49.78         -44.33          20.99          87.37
     1.879              -24.38          10.03          50.68          58.03         -5.556         -2.278         -119.1          48.12          -47.2          23.14          89.36
     1.922               -24.2          10.32          48.89          57.59         -5.015         -1.507         -108.3          45.98         -50.87           25.9          91.92
     1.964              -23.97          10.68          46.61          57.02         -4.323        -0.5225         -94.42          43.24         -55.57          29.43          95.18
     2.007              -23.69          11.13          43.74          56.31         -3.454         0.7159         -77.03           39.8         -61.47          33.86          99.29
      2.05              -23.34          11.69          40.24          55.44         -2.395          2.225         -55.84          35.61         -68.67          39.26          104.3
     2.092              -22.94          12.33          36.18          54.43         -1.167          3.974         -31.27          30.76         -77.01          45.52          110.1
     2.135               -22.5          13.03          31.79          53.33         0.1623          5.868         -4.667           25.5         -86.04           52.3          116.4
     2.178              -22.07          13.72           27.4          52.24          1.492          7.762          21.93          20.24         -95.07          59.08          122.7
      2.22              -21.67          14.37          23.34          51.23           2.72          9.512           46.5          15.38         -103.4          65.35          128.5
     2.263              -21.32          14.92          19.84          50.36          3.779          11.02           67.7          11.19         -110.6          70.75          133.5
